<?xml version="1.0" encoding="UTF-8"?>
<svg xmlns="http://www.w3.org/2000/svg" width="143" height="51" viewBox="0 0 143 51" fill="none">
  <g clip-path="url(#clip0_16012_427)">
    <path d="M45.734 31.179L46.0355 33.3126H38.8676L39.3429 36.6884H44.8949L45.1965 38.845H39.6444L40.2704 43.2958H47.4383L47.7398 45.4524H38.1663L36.5013 33.6174C36.321 32.3294 37.3207 31.1822 38.6185 31.1822H45.7307L45.734 31.179Z" fill="#030C51"></path>
    <path d="M58.3129 39.3531L59.1716 45.4525H56.9495L56.117 39.5366C55.8843 37.8684 54.9338 37.0162 53.5606 37.0162C52.1873 37.0162 51.3679 37.9306 51.3024 39.1925L52.184 45.4557H49.9619L48.5034 35.0858H50.7256L50.9615 36.7737C51.3122 35.6757 52.656 34.8826 53.8654 34.8826C56.6316 34.8826 57.9065 36.4689 58.3097 39.3563L58.3129 39.3531Z" fill="#030C51"></path>
    <path d="M70.7675 40.8969H62.9114C63.3374 42.6241 64.6648 43.7417 66.3593 43.7417C67.5719 43.7417 68.4503 43.1124 68.6076 42.0735H70.8494C70.6298 44.3907 68.9321 45.6722 66.4871 45.6722C63.4784 45.6722 60.9645 43.4566 60.5286 40.3462V40.3266C60.0927 37.2556 61.9576 34.8564 64.868 34.8564C68.2995 34.8564 70.2923 37.5407 70.6462 40.0414L70.7675 40.8969ZM68.3258 39.1696C68.1553 38.111 67.0476 36.6886 65.2089 36.6886C63.6947 36.6886 62.9015 37.8062 62.7704 39.1696H68.3225H68.3258Z" fill="#030C51"></path>
    <path d="M78.2075 37.075H77.9256C76.1296 37.075 74.8022 38.5597 75.0316 40.1854L75.7723 45.4523H73.5305L72.072 35.0823H74.3138L74.6219 37.2782C75.107 35.8362 76.2901 34.9185 77.9059 34.9185L78.2075 37.075Z" fill="#030C51"></path>
    <path d="M87.3056 36.872L87.0631 35.1447H89.3049L90.6945 45.0264C91.1009 47.9138 89.4228 50.0671 86.1519 50.0671C83.9101 50.0671 81.1636 48.4808 80.5966 46.1637H82.8187C83.1137 47.1207 84.4476 48.117 85.8602 48.117C87.6989 48.117 88.7346 47.0191 88.4986 45.3312L88.2167 43.3188C87.8398 44.3774 86.5256 45.2296 85.0114 45.2296C82.3861 45.2296 79.9706 43.1353 79.5511 40.1462V40.1265C79.1152 37.0555 80.9374 34.9219 83.8052 34.9219C85.4407 34.9219 86.9057 36.0002 87.3121 36.8753L87.3056 36.872ZM81.7371 40.0642L81.7437 40.1036C82.0092 41.9947 83.6283 43.3155 85.2441 43.3155C86.8599 43.3155 88.1119 42.1553 87.8202 40.1036L87.8136 40.0642C87.5252 38.0125 85.9454 36.8326 84.2903 36.8326C82.6352 36.8326 81.4684 38.1535 81.7371 40.0642Z" fill="#030C51"></path>
    <path d="M102.415 44.9445C102.821 47.8319 101.143 49.9852 98.0327 49.9852C96.0334 49.9852 94.0079 49.0708 93.0279 47.5665L94.2898 46.3472C95.0862 47.4255 96.4496 48.0548 97.741 48.0548C99.4158 48.0548 100.455 46.9569 100.215 45.2493L100.078 44.2726C99.5305 44.9838 98.6849 45.2886 97.7377 45.2886C95.2927 45.2886 92.9001 43.9252 92.3724 40.1659L91.658 35.0825H93.8801L94.5585 39.9004C94.9223 42.4831 96.2071 43.155 97.4984 43.155C98.7898 43.155 99.6812 42.5847 99.5469 40.4904L98.7865 35.0825H101.028L102.415 44.9445Z" fill="#030C51"></path>
    <path d="M18.7341 0.642578C3.65107 9.55406 10.9074 18.4426 17.233 27.9473C21.084 34.1811 24.6532 39.9364 21.3397 45.318C25.2464 42.8042 27.9962 40.4313 28.0814 34.8333C28.1831 28.0358 23.47 24.1848 20.0778 18.872C16.0432 12.6775 15.1747 5.60469 18.7341 0.645856" fill="#030C51"></path>
    <path d="M17.5312 45.4198C7.87898 44.3546 -8.61661 33.6339 8.16084 11.7371C3.33311 25.8565 4.56216 35.4267 17.5312 45.4198Z" fill="#030C51"></path>
    <path d="M18.806 43.1584C20.0875 43.1584 20.6906 41.3885 20.7299 40.2381C20.9528 33.8568 12.9623 29.973 13.7456 26.4104C13.7456 26.4104 11.0974 30.1336 11.7562 35.0794C12.2576 38.8452 15.9579 43.1551 18.806 43.1551" fill="#00A165"></path>
    <path d="M35.4198 25.6109L34.407 18.3939C34.2104 16.9977 34.1743 15.6506 35.4132 14.592H31.4671L31.0247 11.4358H39.9296L40.372 14.592H38.2384C37.9795 15.6769 38.068 16.2996 38.2515 17.6171L39.3757 25.6109H35.4198Z" fill="#030C51"></path>
    <path d="M42.6172 25.8174L42.142 22.4285H43.4432C45.1901 22.4285 46.9599 21.3174 46.8517 19.8163L46.3437 16.0144C46.2225 15.1623 45.8095 14.592 44.859 14.592H42.4796L42.0371 11.4358H44.9311C48.4249 11.4358 49.7753 12.265 50.316 16.1193L51.0731 21.501L52.3972 25.6142H48.6707L47.6711 22.3302H47.4908C47.4515 23.8804 46.1569 25.8207 44.0265 25.8207H42.6238L42.6172 25.8174Z" fill="#030C51"></path>
    <path d="M67.2964 14.8243C67.1719 17.0497 66.3918 18.99 64.1631 19.5832L69.3776 25.6105H64.7006L58.8962 18.8589C58.0178 19.1965 57.5197 20.2027 57.7688 21.9889L58.2768 25.6105H54.2946L53.8423 22.4019C53.4064 19.2981 55.0091 17.3578 57.1165 16.8138L52.4822 11.4321H57.1329L62.1639 17.2529C62.9275 16.84 63.3274 16.2173 63.37 14.8735L63.5535 11.4321H67.5357L67.2931 14.821L67.2964 14.8243Z" fill="#030C51"></path>
    <path d="M78.1386 25.6105L76.939 17.0727C76.7128 15.47 75.6149 14.5883 74.2252 14.5883H69.4991L69.0566 11.4321H73.9139C78.3844 11.4321 80.3771 13.3724 81.0227 17.951L82.0978 25.6073H78.1418L78.1386 25.6105Z" fill="#030C51"></path>
    <path d="M95.6434 11.4094H99.6255L100.448 17.2565C101.084 21.7827 98.6521 25.8697 93.0017 25.8697H92.6937C87.1449 25.8697 83.52 21.8351 82.8776 17.2565L82.0549 11.4094H86.0371L86.863 17.2827L86.9384 17.8267H87.194C89.1212 17.8267 89.6489 17.0238 89.426 15.4211L88.8623 11.4127H92.8444L93.3786 15.2146C93.7359 17.7481 92.2282 19.9997 87.7315 19.9997H87.6529C88.6132 21.8875 90.2159 22.6905 92.2184 22.6905H92.5789C95.4566 22.6905 97.0035 21.0878 96.4693 17.2827L95.6434 11.4094Z" fill="#030C51"></path>
    <path d="M104.326 20.1765L103.647 15.3389C103.585 14.8997 103.388 14.5883 102.798 14.5883H101.822L101.379 11.4321H102.254C105.8 11.4321 107.092 11.6648 107.623 15.4405L108.288 20.1732H104.332L104.326 20.1765Z" fill="#030C51"></path>
    <path d="M117.878 11.1766C121.296 11.1766 124.125 13.9428 124.735 18.2888L124.794 18.7017C125.325 22.4774 123.565 24.9355 121.061 25.5812C119.75 25.9417 118.225 25.8925 116.796 25.5812L116.354 22.4249C117.367 22.6839 118.222 22.7363 119.133 22.4512C120.336 22.0644 121.129 20.7436 120.834 18.6493L120.795 18.3641C120.448 15.8798 119.074 14.3558 117.278 14.3558H117.124C115.61 14.3558 114.306 15.4931 114.329 17.8725L115.286 25.6074H111.33L110.491 17.6136C110.12 14.4181 109.091 12.5958 108.364 11.4323H112.267C112.588 12.0779 113.145 12.7531 113.503 14.1985C114.132 12.2844 115.62 11.1733 117.701 11.1733H117.881L117.878 11.1766Z" fill="#030C51"></path>
    <path d="M139.962 14.8243C139.837 17.0497 139.057 18.99 136.828 19.5832L142.043 25.6105H137.366L131.562 18.8589C130.683 19.1965 130.185 20.2027 130.434 21.9889L130.942 25.6105H126.96L126.508 22.4019C126.072 19.2981 127.674 17.3578 129.782 16.8138L125.147 11.4321H129.798L134.829 17.2529C135.593 16.84 135.993 16.2173 136.035 14.8735L136.219 11.4321H140.201L139.958 14.821L139.962 14.8243Z" fill="#030C51"></path>
  </g>
  <defs>
    <clipPath id="clip0_16012_427">
      <rect width="143" height="50.7093" fill="white"></rect>
    </clipPath>
  </defs>
</svg>
