<svg xmlns="http://www.w3.org/2000/svg" width="316" height="62" viewBox="0 0 316 62" fill="none"><path d="M15.749 47.904C24.491 51.0826 34.7884 49.0795 41.934 41.934C49.0795 34.7884 51.0843 24.4927 47.904 15.749L15.749 47.904Z" fill="black"></path><path d="M33.6184 1.46346C24.8765 -1.71511 14.5808 0.287921 7.43525 7.43525C0.287921 14.5808 -1.71511 24.8765 1.46346 33.6184L33.6184 1.46346Z" fill="black"></path><path d="M45.2305 11.6035L18.7768 38.0572C14.8165 42.0175 8.38767 42.0175 4.42741 38.0572L4.13736 37.7671L30.591 11.3135C34.5513 7.3532 40.9801 7.3532 44.9404 11.3135L45.2305 11.6035Z" fill="black"></path><path d="M199.524 15.7513C198.918 14.5207 197.951 13.5032 196.649 12.7343C195.347 11.9583 193.604 11.5676 191.482 11.5676H182.166V37.3371H187.426V28.0713H191.76C193.291 28.0713 194.735 27.7588 196.045 27.1319C197.347 26.5122 198.416 25.5729 199.225 24.3423C200.037 23.1188 200.442 21.5881 200.442 19.7804C200.442 18.3563 200.136 17.0049 199.524 15.753V15.7513ZM193.966 22.682C193.254 23.4224 192.314 23.7918 191.169 23.7918H187.426V15.8844H191.126C192.3 15.8844 193.254 16.2609 193.966 17.0085C194.664 17.7561 195.019 18.7238 195.019 19.8976C195.019 21.0714 194.664 21.9468 193.966 22.6802V22.682Z" fill="#1FEB69"></path><path d="M230.16 19.0735C229.498 17.4433 228.537 15.9926 227.321 14.7602C226.105 13.5296 224.666 12.5618 223.05 11.8782C221.434 11.2016 219.648 10.8536 217.748 10.8536C215.848 10.8536 214.054 11.2016 212.431 11.8782C210.801 12.5618 209.365 13.5296 208.161 14.7602C206.952 15.9908 206.005 17.4362 205.336 19.0735C204.666 20.7036 204.325 22.5042 204.325 24.4326C204.325 26.3611 204.666 28.1332 205.336 29.7776C205.998 31.4148 206.959 32.8727 208.175 34.105C209.391 35.3356 210.83 36.3034 212.446 36.9871C214.069 37.6636 215.848 38.0117 217.748 38.0117C219.648 38.0117 221.427 37.6636 223.05 36.9871C224.666 36.3034 226.103 35.3356 227.321 34.105C228.537 32.8745 229.498 31.4148 230.16 29.7776C230.83 28.1261 231.171 26.3327 231.171 24.4326C231.171 22.5326 230.83 20.7036 230.16 19.0735ZM224.56 28.6109C223.947 29.9054 223.057 30.9673 221.905 31.7486C220.745 32.5388 219.35 32.9437 217.748 32.9437C216.146 32.9437 214.752 32.5388 213.591 31.7486C212.446 30.9655 211.542 29.9125 210.922 28.6109C210.302 27.3235 209.99 25.8852 209.99 24.3545C209.99 22.8238 210.302 21.3943 210.922 20.1123C211.542 18.832 212.446 17.7843 213.598 17.0101C214.751 16.2341 216.153 15.8434 217.748 15.8434C219.343 15.8434 220.744 16.2341 221.898 17.0101C223.05 17.786 223.947 18.832 224.56 20.1194C225.165 21.3926 225.471 22.8238 225.471 24.3545C225.471 25.8852 225.165 27.3146 224.56 28.6109Z" fill="#1FEB69"></path><path d="M262.301 11.5659L258.288 31.55L253.4 12.278H248.412L243.559 31.55L239.503 11.5659H233.675L240.13 37.3353H245.986L250.768 19.3649L255.472 37.3353H261.328L267.897 11.5659H262.303H262.301Z" fill="#1FEB69"></path><path d="M309.328 26.9739L309.562 26.8389C310.878 26.1056 311.911 25.1023 312.629 23.8646C313.355 22.6269 313.717 21.1673 313.717 19.5442C313.717 18.0917 313.383 16.7546 312.728 15.5524C312.073 14.3502 311.07 13.3824 309.754 12.6562C308.438 11.9299 306.758 11.5676 304.759 11.5676H295.244V37.3371H300.511V27.6789H304.254L309.143 37.3371H315.07L309.328 26.9757V26.9739ZM307.243 22.3694C306.559 23.0744 305.62 23.4366 304.446 23.4366H300.511V15.9217H304.446C305.592 15.9217 306.517 16.2627 307.215 16.9463C307.905 17.6229 308.26 18.5552 308.26 19.7005C308.26 20.7677 307.92 21.6645 307.243 22.3694Z" fill="#1FEB69"></path><path d="M77.9615 25.8066C77.2281 24.7181 76.2745 23.8569 75.1221 23.2442C73.9483 22.6316 72.7159 22.1628 71.457 21.8485C69.7842 21.4791 68.4471 21.0015 67.4793 20.4386C66.4476 19.8401 65.9273 19.0286 65.9273 18.0396C65.9273 17.2636 66.3322 16.6012 67.1295 16.0614C67.8913 15.5482 68.7312 15.2854 69.6279 15.2854C70.958 15.2854 72.1335 15.5837 73.1155 16.175C73.9625 16.6811 74.6746 17.1499 75.2286 17.5619L78.3379 14.1312C78.0396 13.8328 77.5903 13.4546 77.0008 13.0071C76.2887 12.4726 75.3209 11.9754 74.1259 11.5262C72.9379 11.0769 71.4498 10.8496 69.7061 10.8496C67.6001 10.8496 65.8421 11.219 64.4677 11.9452C63.095 12.6644 62.0544 13.6251 61.3726 14.7988C60.696 15.9726 60.348 17.2902 60.348 18.7055C60.348 20.6197 60.9819 22.2001 62.2409 23.4023C63.5141 24.6329 65.1442 25.4941 67.0869 25.9789C69.1503 26.4849 70.6881 27.0248 71.6487 27.5877C72.6804 28.1932 73.2078 29.0402 73.2078 30.1074C73.2078 30.7769 72.9876 31.3593 72.5668 31.8441C72.1619 32.3076 71.6416 32.6627 71.0219 32.8971C70.4164 33.1315 69.7913 33.2523 69.1503 33.2523C67.5841 33.2523 66.1901 32.8829 65.0075 32.1495C63.9545 31.4943 63.0861 30.8177 62.4096 30.143L58.9434 33.8933C59.5844 34.5485 60.3604 35.1807 61.25 35.7791C62.2249 36.4344 63.3845 36.9742 64.695 37.3879C66.0037 37.7928 67.5344 38.0077 69.2284 38.0077C71.0716 38.0077 72.7586 37.6596 74.2449 36.9689C75.7187 36.2781 76.9067 35.3245 77.7679 34.1295C78.6291 32.9486 79.0624 31.5813 79.0624 30.0648C79.0624 28.3139 78.6931 26.8845 77.9597 25.8013L77.9615 25.8066Z" fill="black"></path><path d="M100.268 11.5654V26.874C100.268 28.632 99.8774 30.0757 99.1156 31.1731C98.3254 32.2971 96.9386 32.8671 94.9871 32.8671C93.0355 32.8671 91.6416 32.2971 90.8443 31.1731C90.0683 30.0846 89.6705 28.6391 89.6705 26.874V11.5654H84.2119V27.6287C84.2119 29.6708 84.6594 31.5069 85.5348 33.0802C86.4174 34.6393 87.6693 35.877 89.2781 36.7382C90.8869 37.6066 92.8082 38.0469 94.9853 38.0469C97.1623 38.0469 99.121 37.5977 100.714 36.724C102.308 35.8415 103.56 34.6109 104.436 33.0589C105.318 31.4998 105.759 29.6779 105.759 27.6287V11.5654H100.265H100.268Z" fill="black"></path><path d="M128.983 15.7505C128.377 14.5199 127.409 13.5024 126.108 12.7336C124.806 11.9576 123.063 11.5669 120.941 11.5669H111.625V37.3363H116.885V28.0706H121.219C122.75 28.0706 124.187 27.758 125.504 27.1312C126.806 26.5115 127.875 25.5721 128.684 24.3415C129.496 23.118 129.901 21.5803 129.901 19.7797C129.901 18.3555 129.595 17.0042 128.983 15.7523V15.7505ZM123.418 22.6812C122.713 23.4217 121.773 23.791 120.628 23.791H116.885V15.8837H120.585C121.759 15.8837 122.713 16.2602 123.425 17.0077C124.123 17.7553 124.485 18.7231 124.485 19.8969C124.485 21.0706 124.123 21.9532 123.418 22.6794V22.6812Z" fill="black"></path><path d="M171.497 26.9732L171.732 26.8382C173.048 26.1048 174.081 25.1015 174.798 23.8638C175.525 22.6262 175.887 21.1665 175.887 19.5435C175.887 18.0909 175.56 16.7538 174.898 15.5516C174.243 14.3495 173.239 13.3746 171.924 12.6554C170.608 11.9291 168.928 11.5669 166.928 11.5669H157.414V37.3363H162.681V27.6781H166.424L171.313 37.3363H177.24L171.497 26.9749V26.9732ZM169.413 22.3687C168.729 23.0736 167.79 23.4359 166.616 23.4359H162.681V15.921H166.616C167.761 15.921 168.694 16.2619 169.384 16.9456C170.082 17.6221 170.43 18.5544 170.43 19.6998C170.43 20.767 170.089 21.6637 169.413 22.3687Z" fill="black"></path><path d="M151.196 22.3047H133.325V26.5824H151.196V22.3047Z" fill="black"></path><path d="M151.197 11.5439H133.326V15.8216H151.197V11.5439Z" fill="black"></path><path d="M151.196 33.0586H133.325V37.3363H151.196V33.0586Z" fill="black"></path><path d="M289.644 22.305H271.773V26.5827H289.644V22.305Z" fill="#1FEB69"></path><path d="M289.644 11.5439H271.773V15.8217H289.644V11.5439Z" fill="#1FEB69"></path><path d="M289.644 33.0586H271.773V37.3364H289.644V33.0586Z" fill="#1FEB69"></path><path d="M262.087 48.6799C264.861 48.6799 265.477 50.5001 265.477 53.0997V58.8975H263.013V53.2152C263.013 51.6933 262.675 50.5569 261.136 50.5569H259.557V58.8957H255.281V57.0188H257.352V50.5569H256.109V48.6799H262.089H262.087Z" fill="black"></path><path d="M276.305 51.5976C276.305 53.5722 275.574 54.7566 273.56 54.9093L276.208 58.8958H267.782V57.0189H272.376L267.214 48.6801H269.794L272.624 53.3698C273.867 53.3502 273.953 52.647 273.953 51.6757V48.6801H276.302V51.5976H276.305Z" fill="black"></path><path d="M281.751 48.6804V58.8979H279.266V48.6804H281.751Z" fill="black"></path><path d="M292.512 58.8957H284.269L284.289 57.0188H288.92V50.5569H284.326V48.6799H291.345V57.0188H292.51V58.8957H292.512Z" fill="black"></path><path d="M303.792 48.6805V53.6118C303.792 57.5787 302.531 58.8981 299.497 58.8981H298.822V57.0389H299.14C300.912 57.0389 301.365 56.7885 301.365 53.9278V50.5575H294.624V48.6805H303.792ZM294.778 52.5605H297.206V61.4001H294.778V52.5605Z" fill="black"></path><path d="M310.653 57.0192H312.704V53.2351C312.704 51.5979 312.271 50.5484 310.537 50.5484H309.882L308.014 58.8979H305.626L307.677 50.5591H306.02V48.6821H310.969C314.05 48.6821 315.051 50.3193 315.034 53.6506V58.8997H310.653V57.0227V57.0192Z" fill="black"></path><path d="M210.631 51.9758C211.446 51.9954 212.261 51.9954 213.077 51.9758C213.167 52.0486 213.128 52.1516 213.128 52.2404C213.13 54.3074 213.126 56.3743 213.135 58.4413C213.135 58.6934 213.062 58.7556 212.817 58.7556C209.735 58.7485 206.65 58.7502 203.567 58.7485C203.477 58.7485 203.376 58.784 203.299 58.6987L203.31 58.7112C203.216 58.61 203.262 58.4857 203.262 58.372C203.259 55.1029 203.26 51.832 203.26 48.5629C203.26 48.3024 203.396 48.1722 203.669 48.1722C204.283 48.1722 204.896 48.1686 205.51 48.174C205.622 48.174 205.746 48.126 205.848 48.2219C205.846 50.4309 205.84 52.6399 205.842 54.849C205.842 55.2609 205.816 55.6747 205.862 56.0866C205.959 56.1506 206.069 56.1222 206.172 56.1222C207.52 56.1239 208.87 56.1133 210.218 56.131C210.525 56.1346 210.583 56.0316 210.58 55.7493C210.566 54.6021 210.573 53.455 210.576 52.3079C210.576 52.196 210.525 52.0717 210.63 51.974L210.631 51.9758Z" fill="black"></path><path d="M188.946 48.195C189.008 48.2021 189.07 48.2092 189.132 48.2163C189.187 48.2358 189.248 48.2394 189.301 48.2678C189.324 48.2731 189.345 48.2766 189.368 48.282C189.409 48.3193 189.47 48.3086 189.514 48.3388C189.53 48.3565 189.549 48.3619 189.573 48.3566C189.621 48.3885 189.686 48.3779 189.725 48.424C189.764 48.4631 189.832 48.4489 189.866 48.4986H189.862C189.887 48.5146 189.912 48.5323 189.938 48.5501C189.947 48.5696 189.961 48.5767 189.983 48.5732C190.025 48.5785 190.056 48.6052 190.08 48.6389C190.105 48.6584 190.13 48.6797 190.157 48.6975L190.166 48.7028C190.191 48.7543 190.272 48.733 190.288 48.7952L190.281 48.7881C190.324 48.7952 190.349 48.8236 190.361 48.8609L190.356 48.8555C190.395 48.868 190.42 48.8946 190.432 48.9319L190.427 48.9266C190.466 48.9408 190.491 48.9656 190.503 49.0047L190.496 48.9976C190.537 49.01 190.563 49.0349 190.569 49.0793L190.56 49.0722C190.627 49.0864 190.606 49.1681 190.654 49.1965L190.658 49.2C190.677 49.2284 190.705 49.248 190.72 49.2799L190.716 49.2746C190.768 49.3048 190.75 49.3758 190.798 49.4078V49.4131C190.819 49.4415 190.851 49.4628 190.856 49.5001L190.849 49.4912C190.913 49.525 190.901 49.5978 190.927 49.6493C190.92 49.6706 190.927 49.6884 190.945 49.7008C190.977 49.7434 190.965 49.8038 191.006 49.8411C191.068 49.9014 191.013 49.9973 191.075 50.0577C191.149 50.1465 191.082 50.269 191.141 50.3631C191.144 50.4022 191.148 50.443 191.151 50.4821C191.203 50.5709 191.181 50.6668 191.181 50.7591C191.181 53.3091 191.181 55.8608 191.181 58.4108C191.181 58.5102 191.229 58.6256 191.128 58.7091L191.142 58.6949C191.084 58.7837 190.993 58.7499 190.917 58.7499C190.221 58.7517 189.525 58.7517 188.829 58.7499C188.75 58.7499 188.66 58.7801 188.599 58.6984L188.612 58.7126C188.509 58.6008 188.562 58.464 188.562 58.3415C188.559 55.9443 188.56 53.547 188.557 51.148C188.557 51.0202 188.591 50.8887 188.521 50.7662C188.44 50.7591 188.358 50.7449 188.276 50.7449C186.284 50.7449 184.292 50.7449 182.297 50.7449C182.226 50.7449 182.157 50.7556 182.086 50.7591C182.063 50.736 182.026 50.7289 182.026 50.6828C182.019 49.9156 182.027 49.1503 182.02 48.3832C182.02 48.2322 182.07 48.1683 182.225 48.1737C182.448 48.1808 182.672 48.1754 182.898 48.1754C184.785 48.1754 186.671 48.1754 188.559 48.1754C188.686 48.1754 188.818 48.1541 188.944 48.1985L188.946 48.195Z" fill="black"></path><path d="M235.078 50.7558C234.984 50.7505 234.89 50.7398 234.796 50.7398C231.978 50.7398 229.16 50.7398 226.34 50.7398C226.246 50.7398 226.152 50.7505 226.059 50.7558C225.926 50.6901 225.99 50.5676 225.99 50.4752C225.985 48.9641 225.994 47.4529 225.979 45.9418C225.978 45.6683 226.059 45.6044 226.32 45.6097C226.981 45.6275 227.643 45.6275 228.304 45.6097C228.56 45.6026 228.622 45.6914 228.616 45.9311C228.602 46.5811 228.622 47.231 228.606 47.8791C228.6 48.1206 228.68 48.1774 228.908 48.1757C230.136 48.1668 231.363 48.1703 232.592 48.1721C232.72 48.1721 232.851 48.1473 232.978 48.197C233.018 48.2023 233.057 48.2076 233.098 48.213C233.171 48.2573 233.265 48.2165 233.334 48.2751C233.343 48.2929 233.358 48.2964 233.374 48.2858C233.413 48.2858 233.441 48.3142 233.475 48.3319L233.544 48.3497C233.585 48.3888 233.649 48.3763 233.69 48.4154H233.695C233.729 48.4633 233.794 48.4473 233.832 48.4882H233.833C233.869 48.5326 233.94 48.5166 233.97 48.5699L233.965 48.5663C233.997 48.5788 234.018 48.6072 234.045 48.6267L234.05 48.6302C234.08 48.6782 234.157 48.6587 234.178 48.719L234.171 48.7119C234.21 48.7208 234.235 48.7474 234.253 48.783L234.249 48.7794C234.281 48.7954 234.306 48.8203 234.325 48.8504H234.324C234.354 48.8664 234.377 48.8913 234.396 48.9215H234.395C234.423 48.9392 234.448 48.9641 234.467 48.9925H234.466C234.496 49.0103 234.521 49.0351 234.537 49.0689L234.531 49.0635C234.567 49.0813 234.593 49.1044 234.602 49.147L234.595 49.1399C234.659 49.1594 234.64 49.2375 234.686 49.2695V49.2731C234.709 49.2997 234.739 49.321 234.75 49.3565L234.744 49.3494C234.801 49.3796 234.785 49.4506 234.826 49.4897C234.871 49.5252 234.858 49.5909 234.899 49.63C234.942 49.6691 234.933 49.733 234.966 49.7774V49.772C235.037 49.8271 234.977 49.9283 235.039 49.9869V49.9834C235.119 50.0686 235.039 50.1911 235.108 50.2781C235.098 50.2994 235.1 50.3208 235.116 50.3385C235.144 50.4823 235.21 50.6279 235.078 50.7576V50.7558Z" fill="black"></path><path d="M224.715 50.7561C224.621 50.7508 224.526 50.7419 224.432 50.7419C221.373 50.7419 218.313 50.7419 215.254 50.7419C215.159 50.7419 215.065 50.7525 214.971 50.7579C214.902 50.7294 214.909 50.6673 214.909 50.6087C214.909 49.8895 214.923 49.1686 214.902 48.4512C214.893 48.1511 215.053 48.1724 215.254 48.1724C217.484 48.1759 219.712 48.1724 221.943 48.1759C222.165 48.1759 222.39 48.1458 222.61 48.2008C222.653 48.2061 222.694 48.2115 222.737 48.2168C222.806 48.2647 222.9 48.2221 222.967 48.2772C222.98 48.2949 222.994 48.2985 223.014 48.2896C223.069 48.3109 223.132 48.3109 223.179 48.3517H223.182C223.22 48.3944 223.283 48.3801 223.323 48.4174C223.331 48.4352 223.346 48.4405 223.363 48.4316C223.406 48.4352 223.434 48.4636 223.465 48.4902H223.47C223.502 48.54 223.573 48.5222 223.603 48.5702H223.601C223.626 48.5879 223.653 48.6074 223.679 48.6252L223.69 48.6305C223.715 48.6838 223.791 48.6625 223.814 48.7175L223.809 48.7122C223.845 48.7246 223.868 48.7513 223.889 48.7815H223.887C223.916 48.7974 223.939 48.8241 223.962 48.8489C223.987 48.872 224.01 48.8951 224.033 48.9182C224.056 48.9431 224.079 48.9661 224.102 48.991C224.127 49.0159 224.152 49.0372 224.171 49.0674H224.17C224.2 49.0851 224.226 49.11 224.239 49.1455L224.232 49.1384C224.288 49.1615 224.267 49.2378 224.32 49.2627L224.326 49.2716C224.344 49.2982 224.363 49.3248 224.384 49.3515L224.381 49.3479C224.431 49.3799 224.413 49.4509 224.461 49.4829V49.4864C224.489 49.5166 224.518 49.5468 224.521 49.5912C224.512 49.609 224.518 49.6214 224.535 49.6285C224.573 49.6693 224.558 49.7315 224.599 49.7705C224.642 49.8185 224.64 49.8824 224.661 49.9375C224.651 49.957 224.656 49.9712 224.674 49.9836C224.729 50.0511 224.686 50.1452 224.736 50.2145C224.725 50.234 224.727 50.2518 224.745 50.2678C224.777 50.4329 224.828 50.5998 224.715 50.7579V50.7561Z" fill="black"></path><path d="M217.4 61.2649C216.591 61.2365 215.781 61.2383 214.971 61.2649C214.852 61.1886 214.911 61.0714 214.911 60.9755C214.907 58.0757 214.907 55.1742 214.911 52.2744C214.911 52.1749 214.863 52.0595 214.964 51.9761C215.779 51.9938 216.594 51.9956 217.409 51.9761C217.507 52.0613 217.461 52.1767 217.461 52.2762C217.464 55.1759 217.464 58.0739 217.461 60.9737C217.461 61.0714 217.518 61.1886 217.402 61.2667L217.4 61.2649Z" fill="black"></path><path d="M229.964 56.2374C230.765 56.241 231.568 56.241 232.369 56.2498C232.527 56.2498 232.569 56.1895 232.569 56.0421C232.562 54.7103 232.56 53.3785 232.557 52.0467C232.58 52.0183 232.605 51.9916 232.637 51.9739C233.452 51.997 234.269 51.9916 235.084 51.9774C235.183 52.0289 235.144 52.123 235.144 52.1976C235.146 53.6271 235.146 55.0548 235.144 56.4842C235.144 56.5428 235.144 56.6032 235.114 56.6565C235.098 56.6742 235.094 56.6938 235.107 56.7169C235.036 56.8039 235.117 56.9282 235.034 57.0116V57.0081C234.975 57.0667 235.034 57.1697 234.959 57.2229L234.963 57.2176C234.931 57.262 234.94 57.3259 234.894 57.365C234.855 57.4041 234.867 57.4698 234.821 57.5071C234.782 57.5443 234.798 57.6172 234.739 57.6456L234.746 57.6385C234.737 57.6757 234.707 57.6953 234.684 57.7219C234.638 57.7574 234.659 57.8356 234.594 57.8533L234.601 57.8462C234.595 57.8888 234.567 57.9137 234.53 57.9297L234.535 57.9244C234.521 57.9599 234.494 57.9847 234.462 58.0025L234.466 57.9989C234.448 58.0309 234.423 58.0558 234.391 58.0735L234.395 58.07C234.377 58.1019 234.352 58.1268 234.32 58.1445L234.324 58.141C234.306 58.173 234.281 58.1996 234.245 58.2138L234.251 58.2085C234.235 58.244 234.21 58.2724 234.169 58.2777L234.176 58.2706C234.158 58.3345 234.08 58.315 234.048 58.3594L234.043 58.363C234.016 58.3843 233.997 58.4145 233.961 58.4233L233.967 58.418C233.938 58.4748 233.867 58.4588 233.83 58.4997C233.794 58.5441 233.729 58.5299 233.691 58.5707H233.688C233.649 58.6133 233.587 58.6027 233.544 58.6382C233.491 58.7092 233.39 58.6489 233.335 58.711H233.333C233.263 58.7732 233.168 58.7341 233.093 58.7749L233.072 58.766L233.054 58.7803C232.599 58.8637 232.139 58.8069 231.681 58.8158C231.163 58.8264 230.643 58.8158 230.124 58.8193C229.998 58.8193 229.89 58.8193 229.891 58.64C229.898 57.8622 229.886 57.0827 229.897 56.3049C229.897 56.2552 229.938 56.2552 229.962 56.2339L229.964 56.2374Z" fill="black"></path><path d="M224.607 56.8679C224.59 56.8856 224.586 56.9052 224.597 56.9265C224.542 56.9922 224.597 57.0916 224.526 57.152V57.1484C224.492 57.191 224.503 57.2532 224.465 57.2958C224.447 57.3047 224.442 57.3171 224.451 57.3349C224.447 57.3775 224.421 57.4077 224.396 57.4379C224.376 57.445 224.373 57.4574 224.38 57.4752C224.376 57.5196 224.348 57.5497 224.318 57.5799C224.275 57.6172 224.291 57.69 224.233 57.7167L224.24 57.7096C224.229 57.7451 224.201 57.7682 224.176 57.793C224.117 57.8569 224.099 57.9528 224.014 57.9937L224.021 57.9866C224.016 58.031 223.989 58.0558 223.949 58.0665L223.956 58.0594C223.945 58.1002 223.92 58.1269 223.877 58.134L223.883 58.1269C223.84 58.2085 223.744 58.2245 223.686 58.2885L223.68 58.292C223.654 58.3133 223.634 58.3399 223.602 58.3542L223.606 58.3506C223.542 58.4128 223.467 58.4536 223.387 58.4909H223.391C223.359 58.5442 223.291 58.53 223.249 58.5637H223.251C223.215 58.6134 223.149 58.6028 223.103 58.6312L223.107 58.6276C223.057 58.7111 222.954 58.6472 222.894 58.7058H222.896C222.817 58.7928 222.693 58.7058 222.611 58.7786C222.384 58.8656 222.146 58.8123 221.915 58.8141C221.198 58.8229 220.479 58.8052 219.761 58.823C219.506 58.8283 219.445 58.743 219.451 58.5015C219.467 57.8303 219.454 57.1591 219.458 56.4896C219.458 56.4044 219.408 56.2979 219.516 56.2339C220.36 56.2428 221.203 56.2677 222.045 56.2197C222.114 56.099 222.079 55.9658 222.08 55.8379C222.084 54.6589 222.08 53.478 222.086 52.2989C222.086 52.1906 222.025 52.0627 222.144 51.9722C222.975 51.9722 223.806 51.9722 224.638 51.9722C224.735 52.0024 224.707 52.084 224.707 52.1497C224.707 53.51 224.707 54.8702 224.707 56.2304C224.707 56.2783 224.7 56.3245 224.678 56.3671C224.675 56.4328 224.671 56.4967 224.666 56.5624C224.606 56.6548 224.666 56.772 224.607 56.8643V56.8679Z" fill="black"></path><path d="M199.884 48.3391C199.898 48.3569 199.918 48.3622 199.939 48.3551C199.989 48.3835 200.056 48.3746 200.095 48.4244C200.136 48.4599 200.206 48.4457 200.238 48.5007L200.232 48.4972C200.261 48.5131 200.285 48.5327 200.312 48.5522C200.317 48.5717 200.332 48.5771 200.349 48.5717C200.397 48.5753 200.428 48.6019 200.452 48.641L200.449 48.6374C200.479 48.6534 200.5 48.6801 200.527 48.6996L200.532 48.7031C200.55 48.728 200.573 48.7475 200.6 48.76L200.612 48.7689C200.632 48.8239 200.715 48.8008 200.728 48.863L200.721 48.8559C200.765 48.8647 200.79 48.8896 200.799 48.934L200.792 48.9269C200.836 48.9358 200.863 48.9606 200.868 49.005L200.861 48.9979C200.927 49.0104 200.903 49.0938 200.957 49.1169L200.962 49.1258C200.98 49.1524 200.999 49.1773 201.022 49.2004C201.049 49.2234 201.076 49.2465 201.086 49.2838L201.079 49.2767C201.138 49.3033 201.122 49.3762 201.163 49.4134C201.205 49.449 201.189 49.5164 201.237 49.5484V49.5537C201.275 49.5946 201.262 49.6585 201.307 49.694V49.6976C201.346 49.7402 201.337 49.8023 201.372 49.8467V49.8414C201.441 49.9035 201.39 50.003 201.441 50.0705C201.431 50.0918 201.434 50.1095 201.452 50.1237C201.514 50.2178 201.454 50.335 201.511 50.4309C201.511 50.5144 201.514 50.5996 201.516 50.6831C201.493 50.7151 201.466 50.7435 201.427 50.7559C201.333 50.7506 201.239 50.7399 201.145 50.7399C198.343 50.7399 195.541 50.7399 192.739 50.7399C192.645 50.7399 192.55 50.7506 192.456 50.7559C192.387 50.7275 192.394 50.6653 192.394 50.6067C192.394 49.8751 192.396 49.1453 192.392 48.4137C192.392 48.2663 192.405 48.1669 192.597 48.1687C194.836 48.1864 197.077 48.1402 199.316 48.1953C199.362 48.2006 199.408 48.2059 199.454 48.2095C199.517 48.2663 199.607 48.2202 199.673 48.2681C199.692 48.2841 199.714 48.2894 199.737 48.2823C199.781 48.3178 199.842 48.3072 199.886 48.3391H199.884Z" fill="black"></path><path d="M239.243 51.9758C240.233 51.9935 241.224 52.0024 242.213 51.9704C242.233 51.9456 242.258 51.9367 242.29 51.9438C242.362 51.9775 242.377 52.0592 242.426 52.1125C242.451 52.1374 242.481 52.1587 242.49 52.196L242.485 52.1906C242.522 52.2048 242.528 52.2421 242.545 52.2705C242.561 52.2865 242.579 52.3007 242.6 52.3114C242.62 52.3238 242.636 52.3398 242.65 52.3575C242.65 52.3575 242.67 52.3842 242.671 52.3842C242.684 52.4019 242.7 52.4197 242.718 52.4339C242.737 52.4463 242.751 52.4641 242.76 52.4854C242.773 52.5049 242.783 52.5245 242.794 52.544C242.806 52.5618 242.819 52.5813 242.831 52.599C242.847 52.615 242.861 52.6328 242.876 52.6488C242.876 52.6488 242.899 52.6736 242.901 52.6736C242.918 52.6896 242.933 52.7074 242.945 52.7269C242.956 52.7482 242.961 52.7713 242.961 52.7944C242.961 52.8317 242.97 52.8636 242.998 52.8885C243.021 52.9151 243.05 52.9364 243.062 52.9719L243.057 52.9666C243.092 52.9844 243.099 53.0234 243.121 53.0536C243.14 53.0678 243.16 53.0838 243.179 53.098C243.199 53.114 243.215 53.1318 243.227 53.1531C243.233 53.1637 243.238 53.1744 243.243 53.1868C243.252 53.2099 243.261 53.233 243.27 53.2561H243.266C243.302 53.2649 243.323 53.2934 243.348 53.3182C243.364 53.336 243.378 53.3537 243.392 53.3715C243.408 53.3892 243.424 53.4052 243.439 53.423C243.439 53.423 243.462 53.4496 243.463 53.4478C243.479 53.4656 243.494 53.4834 243.506 53.5047C243.517 53.526 243.524 53.5491 243.526 53.5721C243.526 53.6094 243.534 53.6414 243.563 53.668V53.6716C243.586 53.6982 243.614 53.7195 243.629 53.7515L243.623 53.7462C243.657 53.7657 243.687 53.7888 243.691 53.8314L243.682 53.8243C243.751 53.8403 243.73 53.9202 243.774 53.9557C243.799 53.9806 243.829 54.0019 243.84 54.0374L243.835 54.0321C243.872 54.0498 243.879 54.0907 243.902 54.1191C243.922 54.1351 243.938 54.1546 243.954 54.1741C243.962 54.1972 243.973 54.2203 243.987 54.2416C244.017 54.2629 244.044 54.286 244.053 54.3233L244.046 54.3162C244.106 54.3375 244.087 54.4156 244.135 54.4458V54.4494C244.156 54.476 244.184 54.4973 244.2 54.5293L244.197 54.5257C244.229 54.547 244.259 54.5701 244.263 54.611L244.255 54.6038C244.321 54.6234 244.302 54.7015 244.346 54.7352C244.369 54.7619 244.399 54.7832 244.41 54.8187L244.405 54.8134C244.442 54.8276 244.445 54.8667 244.463 54.8951C244.479 54.9128 244.497 54.9253 244.518 54.9359C244.538 54.9483 244.554 54.9643 244.57 54.9821L244.595 55.0069C244.612 55.0229 244.627 55.0407 244.641 55.0584C244.657 55.0762 244.669 55.0957 244.68 55.117C244.692 55.1366 244.703 55.1561 244.715 55.1774C244.73 55.1952 244.742 55.2147 244.756 55.2342C244.772 55.252 244.785 55.2715 244.795 55.2928L244.809 55.3248C244.82 55.3461 244.825 55.3692 244.829 55.3923L244.824 55.3869C244.888 55.4065 244.868 55.4846 244.914 55.5166C244.936 55.545 244.964 55.5663 244.978 55.6L244.973 55.5947C245.008 55.6142 245.037 55.6373 245.04 55.6799L245.035 55.6764C245.062 55.6799 245.083 55.6906 245.101 55.7119C245.118 55.7314 245.133 55.7527 245.143 55.7758C245.149 55.7883 245.154 55.7989 245.159 55.8113C245.168 55.8362 245.179 55.8593 245.189 55.8824H245.184C245.223 55.8984 245.229 55.9392 245.252 55.9676C245.271 55.9836 245.287 56.0031 245.303 56.0227C245.312 56.0457 245.323 56.0688 245.337 56.0901H245.335C245.365 56.1097 245.394 56.1328 245.401 56.1718L245.394 56.1647C245.456 56.186 245.436 56.2624 245.484 56.2943V56.2979C245.507 56.3245 245.534 56.3458 245.55 56.3778L245.546 56.3743C245.58 56.3938 245.609 56.4169 245.612 56.4595L245.603 56.4524C245.671 56.4701 245.651 56.5483 245.694 56.5838C245.719 56.6104 245.747 56.6317 245.758 56.6672L245.752 56.6619C245.79 56.6797 245.795 56.7205 245.818 56.7507C245.838 56.7667 245.854 56.7862 245.87 56.8058C245.878 56.8288 245.889 56.8519 245.903 56.8732C245.932 56.8945 245.96 56.9176 245.969 56.9549L245.962 56.9478C246.022 56.9691 246.003 57.0473 246.051 57.0757L246.054 57.081C246.072 57.1094 246.1 57.1307 246.116 57.1591L246.113 57.1556C246.145 57.1769 246.173 57.2 246.179 57.2408L246.171 57.2337C246.235 57.2532 246.216 57.3314 246.262 57.3651C246.282 57.3829 246.301 57.3971 246.324 57.406C246.345 57.4184 246.363 57.4344 246.377 57.4557C246.39 57.4752 246.402 57.4965 246.415 57.5178C246.429 57.5374 246.441 57.5569 246.456 57.5747C246.472 57.5924 246.486 57.6119 246.5 57.6297C246.505 57.6404 246.509 57.651 246.512 57.6617C246.519 57.6847 246.527 57.7061 246.535 57.7274L246.53 57.7238C246.587 57.7469 246.567 57.8233 246.617 57.8517L246.621 57.8588C246.64 57.8854 246.662 57.9103 246.681 57.9369C246.702 57.9476 246.725 57.9582 246.749 57.9671C246.77 57.9813 246.788 57.999 246.8 58.0204C246.812 58.0399 246.825 58.0612 246.837 58.0825C246.852 58.102 246.864 58.1216 246.878 58.1393C246.894 58.1571 246.91 58.1731 246.926 58.1908L246.951 58.2157C246.969 58.2317 246.983 58.2512 246.995 58.2707C247.008 58.2903 247.018 58.3116 247.029 58.3347C247.042 58.356 247.056 58.3773 247.07 58.3968C247.079 58.4075 247.086 58.4163 247.095 58.427C247.114 58.4483 247.13 58.4696 247.146 58.4927C247.164 58.5193 247.177 58.546 247.187 58.5762C247.21 58.6241 247.217 58.6738 247.189 58.7236C247.171 58.7324 247.155 58.7395 247.137 58.7466C247.118 58.7466 247.098 58.7466 247.079 58.7466C247.058 58.7466 247.038 58.7466 247.017 58.7466C246.143 58.7466 245.271 58.7484 244.399 58.7449C244.286 58.7449 244.163 58.7857 244.058 58.7022L244.064 58.7076C244.03 58.6934 244.009 58.6667 243.986 58.6383C243.959 58.617 243.93 58.5939 243.92 58.5566L243.925 58.562C243.852 58.5069 243.822 58.4217 243.774 58.3506C243.744 58.3311 243.716 58.308 243.708 58.269L243.716 58.2761C243.653 58.2565 243.673 58.1784 243.627 58.1464V58.1429C243.604 58.1162 243.575 58.0949 243.561 58.063L243.565 58.0665C243.531 58.047 243.503 58.0239 243.499 57.9813L243.506 57.9884C243.439 57.9706 243.458 57.8925 243.416 57.8588C243.391 57.8339 243.362 57.8126 243.35 57.7771L243.355 57.7824C243.284 57.7274 243.256 57.6421 243.204 57.5711C243.176 57.5498 243.147 57.5267 243.138 57.4894L243.146 57.4965C243.085 57.4752 243.105 57.3971 243.057 57.3687L243.053 57.3633C243.035 57.3349 243.007 57.3154 242.991 57.2852L242.995 57.2888C242.963 57.2674 242.934 57.2444 242.929 57.2035L242.936 57.2106C242.87 57.1911 242.89 57.113 242.845 57.081C242.822 57.0526 242.794 57.0331 242.782 56.9975L242.787 57.0029C242.718 56.946 242.689 56.8608 242.636 56.7933C242.609 56.7702 242.581 56.7472 242.57 56.7116L242.577 56.7187C242.519 56.6957 242.538 56.6193 242.489 56.5909L242.485 56.5856C242.464 56.5589 242.444 56.5341 242.425 56.5074V56.511C242.396 56.4897 242.368 56.4666 242.361 56.4258L242.368 56.4329C242.304 56.4133 242.323 56.3352 242.277 56.3032V56.2997C242.254 56.273 242.226 56.2517 242.212 56.2198L242.215 56.2251C242.181 56.2056 242.151 56.1825 242.149 56.1399L242.156 56.147C242.089 56.1292 242.109 56.0511 242.066 56.0173C242.041 55.9925 242.013 55.9712 242.002 55.9339L242.007 55.9392C241.936 55.8841 241.906 55.7989 241.856 55.7279C241.828 55.7066 241.8 55.6835 241.791 55.6462L241.798 55.6533C241.737 55.632 241.757 55.5556 241.709 55.5237L241.705 55.5201C241.686 55.4935 241.658 55.4722 241.643 55.4402L241.647 55.4438C241.615 55.4242 241.585 55.4012 241.581 55.3585L241.588 55.3656C241.523 55.3479 241.542 55.2697 241.498 55.236C241.475 55.2094 241.446 55.1881 241.434 55.1525L241.439 55.1579C241.37 55.1011 241.341 55.0158 241.288 54.9483C241.262 54.9253 241.233 54.9022 241.222 54.8667L241.23 54.8738C241.171 54.8507 241.191 54.7743 241.141 54.7459L241.137 54.7406C241.119 54.7122 241.091 54.6926 241.075 54.6624L241.079 54.666C241.047 54.6447 241.018 54.6216 241.013 54.5808L241.02 54.5879C240.956 54.5683 240.976 54.4902 240.929 54.4582H240.928C240.906 54.4298 240.878 54.4085 240.864 54.3748L240.869 54.3801C240.802 54.3233 240.773 54.238 240.718 54.1706C240.693 54.1457 240.663 54.1244 240.652 54.0889L240.658 54.096C240.601 54.0729 240.62 53.9965 240.571 53.9681L240.567 53.961C240.548 53.9344 240.526 53.9095 240.507 53.8829H240.509C240.478 53.8634 240.45 53.8403 240.443 53.8012L240.45 53.8083C240.388 53.787 240.407 53.7107 240.361 53.6787L240.358 53.6751C240.338 53.6485 240.31 53.6272 240.296 53.5952L240.299 53.5988C240.265 53.5792 240.237 53.5562 240.233 53.5135L240.24 53.5206C240.173 53.5029 240.193 53.4248 240.15 53.391C240.127 53.3644 240.097 53.3431 240.086 53.3076L240.091 53.3129C240.022 53.2561 239.992 53.1708 239.94 53.1034C239.912 53.082 239.884 53.059 239.875 53.0217L239.882 53.0288C239.821 53.0075 239.841 52.9293 239.793 52.9009L239.789 52.8956C239.772 52.8672 239.743 52.8476 239.727 52.8175L239.731 52.821C239.699 52.7997 239.67 52.7766 239.665 52.7358L239.672 52.7429C239.608 52.7233 239.628 52.6452 239.582 52.6133C239.56 52.5848 239.53 52.5635 239.518 52.5298L239.523 52.5351C239.456 52.4783 239.425 52.3931 239.372 52.3256C239.346 52.3025 239.319 52.2794 239.306 52.2439L239.312 52.251C239.255 52.2279 239.274 52.1516 239.225 52.1231L239.221 52.116C239.191 52.0663 239.182 52.0184 239.239 51.9793L239.243 51.9758Z" fill="black"></path><path d="M236.418 51.9774C237.249 51.9774 238.08 51.9774 238.912 51.9774C239.025 52.0182 238.981 52.1159 238.981 52.1887C238.983 54.2983 238.983 56.4078 238.981 58.5174C238.981 58.5849 239 58.6612 238.926 58.7092L238.94 58.695C238.881 58.7838 238.791 58.75 238.714 58.75C238.018 58.7518 237.322 58.7518 236.628 58.75C236.55 58.75 236.461 58.7784 236.397 58.7003L236.408 58.7127C236.324 58.6364 236.36 58.5352 236.36 58.4446C236.358 56.3741 236.358 54.3054 236.36 52.2349C236.36 52.1496 236.31 52.0431 236.418 51.9774Z" fill="black"></path><path d="M182.083 51.9754C182.9 51.9914 183.716 51.9967 184.535 51.9736C184.567 51.9914 184.594 52.018 184.615 52.0464C184.611 53.0391 184.606 54.0317 184.606 55.0243C184.606 56.2407 184.61 57.4589 184.61 58.6752C184.592 58.7516 184.531 58.7481 184.473 58.7481C183.711 58.7481 182.951 58.7481 182.189 58.7481C182.14 58.7481 182.097 58.7356 182.063 58.7001L182.072 58.7108C181.994 58.6309 182.026 58.5314 182.026 58.4409C182.024 56.3721 182.024 54.3052 182.026 52.2364C182.026 52.1477 181.983 52.0447 182.081 51.9754H182.083Z" fill="black"></path><path d="M198.99 51.9772C199.805 51.9932 200.622 51.9985 201.437 51.9736C201.469 51.9914 201.494 52.018 201.517 52.0464C201.513 53.0391 201.508 54.0317 201.508 55.0243C201.508 56.2425 201.51 57.4589 201.511 58.677C201.492 58.7534 201.431 58.7498 201.375 58.7498C200.613 58.7498 199.853 58.7498 199.091 58.7498C199.041 58.7498 199 58.7374 198.967 58.7001L198.977 58.7125C198.894 58.6362 198.929 58.535 198.929 58.4444C198.928 56.3757 198.928 54.3052 198.929 52.2364C198.929 52.1512 198.88 52.0447 198.988 51.979L198.99 51.9772Z" fill="black"></path><path d="M244.633 54.8103C244.638 54.7286 244.651 54.6469 244.651 54.5652C244.651 52.5249 244.651 50.4846 244.651 48.4461C244.651 48.375 244.644 48.3058 244.638 48.2347C244.674 48.1797 244.725 48.1619 244.789 48.1655C245.519 48.1868 246.251 48.1744 246.98 48.1708C247.165 48.1708 247.225 48.2259 247.224 48.4123C247.217 49.8507 247.224 51.2872 247.218 52.7256C247.218 52.7629 247.199 52.7931 247.185 52.825C247.167 52.8374 247.165 52.8534 247.178 52.8712C247.133 52.944 247.172 53.0399 247.114 53.1074C247.046 53.1624 247.108 53.2636 247.039 53.3187C247.002 53.3577 247.011 53.4217 246.972 53.4625C246.927 53.4998 246.941 53.5673 246.899 53.6028C246.856 53.6401 246.872 53.7111 246.817 53.7413L246.822 53.736C246.81 53.7697 246.782 53.791 246.762 53.8177V53.8212C246.712 53.8514 246.732 53.9295 246.67 53.9491L246.677 53.942C246.67 53.9828 246.641 54.0059 246.606 54.0236L246.611 54.0183C246.595 54.052 246.57 54.0769 246.538 54.0964L246.542 54.0929C246.524 54.1249 246.499 54.1479 246.471 54.1675C246.451 54.1941 246.426 54.2207 246.396 54.2367L246.4 54.2332C246.38 54.2651 246.357 54.29 246.322 54.306L246.327 54.3007C246.309 54.3362 246.286 54.3646 246.245 54.3699L246.252 54.3628C246.235 54.4285 246.156 54.4072 246.125 54.4516H246.121C246.096 54.4765 246.075 54.5066 246.039 54.5155L246.045 54.5102C246.016 54.5688 245.945 54.5528 245.906 54.5901C245.871 54.6363 245.805 54.6238 245.766 54.6629C245.727 54.7091 245.665 54.6984 245.62 54.7304H245.622C245.579 54.7961 245.485 54.7499 245.441 54.8121C245.421 54.8334 245.396 54.844 245.368 54.8476C245.286 54.844 245.201 54.8227 245.125 54.8724C244.97 54.9293 244.819 55.0074 244.652 54.9115C244.613 54.8813 244.608 54.8458 244.635 54.805L244.633 54.8103Z" fill="black"></path><path d="M211.673 48.4088C211.687 48.4265 211.705 48.4336 211.726 48.4265C211.76 48.4354 211.785 48.4603 211.815 48.478C211.826 48.4976 211.84 48.5047 211.861 48.4976C211.902 48.5047 211.931 48.5295 211.957 48.558H211.961C211.995 48.6041 212.069 48.5864 212.092 48.645L212.085 48.6379C212.122 48.6485 212.146 48.6751 212.167 48.7036C212.192 48.7231 212.217 48.7444 212.241 48.7675L212.245 48.771C212.265 48.7959 212.288 48.8154 212.312 48.8332L212.321 48.8403C212.336 48.8669 212.357 48.8865 212.384 48.9007L212.394 48.9113C212.408 48.938 212.428 48.9593 212.455 48.9735L212.463 48.9823C212.478 49.009 212.499 49.0321 212.524 49.0481L212.529 49.0534C212.549 49.0782 212.57 49.1031 212.593 49.128C212.62 49.151 212.648 49.1724 212.661 49.2079L212.655 49.2025C212.71 49.2274 212.693 49.3038 212.74 49.3322L212.744 49.3375C212.762 49.3659 212.794 49.3872 212.803 49.421L212.797 49.4139C212.854 49.444 212.84 49.5151 212.875 49.5577V49.5541C212.923 49.5914 212.913 49.6571 212.945 49.7015L212.941 49.6962C213.019 49.7477 212.954 49.8525 213.021 49.9075C213.083 49.9714 213.035 50.0673 213.087 50.1348C213.076 50.1561 213.08 50.1739 213.097 50.1916C213.128 50.3816 213.184 50.5716 213.065 50.7528C212.842 50.7474 212.618 50.7368 212.392 50.7368C211.032 50.7368 209.672 50.7368 208.314 50.7368C208.184 50.7368 208.054 50.7474 207.925 50.7528C207.77 50.6995 207.804 50.5681 207.804 50.4544C207.802 49.7814 207.804 49.1067 207.804 48.4336C207.804 48.3058 207.775 48.1655 207.985 48.1691C208.978 48.1868 209.969 48.1389 210.961 48.1939C211.006 48.1993 211.05 48.2046 211.093 48.2099C211.158 48.2632 211.251 48.217 211.316 48.2703C211.332 48.288 211.35 48.2916 211.371 48.2827C211.421 48.3111 211.483 48.304 211.529 48.3431C211.538 48.3608 211.552 48.3662 211.572 48.3573C211.611 48.3608 211.639 48.3875 211.671 48.407L211.673 48.4088Z" fill="black"></path><path d="M241.331 50.7541C240.449 50.7487 239.566 50.7416 238.684 50.7416C237.931 50.7416 237.178 50.7505 236.425 50.7558C236.315 50.7132 236.359 50.6156 236.359 50.5428C236.356 49.8484 236.367 49.1541 236.352 48.4616C236.347 48.2237 236.429 48.1651 236.654 48.1686C237.583 48.1793 238.513 48.1739 239.442 48.1739C239.486 48.1722 239.533 48.1739 239.577 48.1828C239.614 48.2112 239.636 48.2503 239.641 48.2965L239.637 48.2911C239.703 48.3089 239.684 48.3888 239.728 48.4225C239.746 48.4385 239.767 48.4509 239.788 48.4598C239.81 48.4705 239.827 48.4865 239.842 48.506C239.854 48.5255 239.866 48.5451 239.877 48.5664C239.89 48.5859 239.902 48.6054 239.914 48.6232C239.93 48.641 239.945 48.6569 239.961 48.6747C239.961 48.6747 239.984 48.6995 239.985 48.6995C240.003 48.7155 240.017 48.7333 240.03 48.7528C240.042 48.7741 240.048 48.7954 240.046 48.8203C240.046 48.8558 240.053 48.8896 240.085 48.9109L240.088 48.9162C240.106 48.9446 240.133 48.9659 240.151 48.9943L240.147 48.9908C240.177 49.0121 240.207 49.0352 240.213 49.076L240.206 49.0689C240.27 49.0884 240.25 49.1666 240.296 49.1985C240.318 49.2269 240.346 49.2483 240.36 49.282L240.355 49.2767C240.39 49.2962 240.419 49.3193 240.422 49.3619L240.415 49.3566C240.442 49.3566 240.458 49.369 240.467 49.3939C240.468 49.4294 240.484 49.4578 240.506 49.4862C240.532 49.5093 240.559 49.5324 240.571 49.5679L240.566 49.5643C240.602 49.5732 240.621 49.6034 240.646 49.6265C240.662 49.6425 240.676 49.6602 240.689 49.6798C240.705 49.6957 240.719 49.7135 240.733 49.7295L240.756 49.7543C240.772 49.7703 240.788 49.7863 240.801 49.8041C240.815 49.8218 240.827 49.8396 240.838 49.8609C240.85 49.8804 240.859 49.8999 240.87 49.9195C240.882 49.9372 240.895 49.9568 240.907 49.9745C240.923 49.9905 240.937 50.0083 240.951 50.0242L240.975 50.0491C240.992 50.0651 241.007 50.0828 241.019 50.1024C241.03 50.1237 241.035 50.1468 241.035 50.1699C241.035 50.2071 241.046 50.2391 241.07 50.2657C241.094 50.2924 241.124 50.3137 241.134 50.3474L241.129 50.3421C241.165 50.3616 241.172 50.4007 241.195 50.4309C241.214 50.4469 241.23 50.4664 241.246 50.4859C241.255 50.509 241.266 50.5321 241.28 50.5516C241.308 50.5729 241.337 50.596 241.346 50.6333L241.337 50.6262C241.404 50.6759 241.406 50.7186 241.323 50.7523L241.331 50.7541Z" fill="black"></path></svg>